<?xml version="1.0" encoding="UTF-8" standalone="no"?>
<!-- Created with Inkscape (http://www.inkscape.org/) -->

<svg
   xmlns:dc="http://purl.org/dc/elements/1.1/"
   xmlns:cc="http://creativecommons.org/ns#"
   xmlns:rdf="http://www.w3.org/1999/02/22-rdf-syntax-ns#"
   xmlns:svg="http://www.w3.org/2000/svg"
   xmlns="http://www.w3.org/2000/svg"
   xmlns:sodipodi="http://sodipodi.sourceforge.net/DTD/sodipodi-0.dtd"
   xmlns:inkscape="http://www.inkscape.org/namespaces/inkscape"
   width="11.493155mm"
   height="11.209476mm"
   viewBox="0 0 11.493155 11.209476"
   version="1.1"
   id="svg114"
   inkscape:version="0.92.5 (2060ec1f9f, 2020-04-08)"
   sodipodi:docname="github logo-light.svg">
  <defs
     id="defs108" />
  <sodipodi:namedview
     id="base"
     pagecolor="#000000"
     bordercolor="#666666"
     borderopacity="1.0"
     inkscape:pageopacity="0"
     inkscape:pageshadow="2"
     inkscape:zoom="0.35"
     inkscape:cx="-452.56638"
     inkscape:cy="-95.959588"
     inkscape:document-units="mm"
     inkscape:current-layer="layer1"
     showgrid="false"
     fit-margin-top="0"
     fit-margin-left="0"
     fit-margin-right="0"
     fit-margin-bottom="0"
     inkscape:window-width="1920"
     inkscape:window-height="1016"
     inkscape:window-x="0"
     inkscape:window-y="1051"
     inkscape:window-maximized="1" />
  <metadata
     id="metadata111">
    <rdf:RDF>
      <cc:Work
         rdf:about="">
        <dc:format>image/svg+xml</dc:format>
        <dc:type
           rdf:resource="http://purl.org/dc/dcmitype/StillImage" />
        <dc:title></dc:title>
      </cc:Work>
    </rdf:RDF>
  </metadata>
  <g
     inkscape:label="Layer 1"
     inkscape:groupmode="layer"
     id="layer1"
     transform="translate(-95.551045,-112.23455)">
    <path
       inkscape:connector-curvature="0"
       id="path106"
       style="fill:#ffffff;fill-opacity:1;fill-rule:evenodd;stroke:none;stroke-width:0.03527778"
       d="m 101.29709,112.23455 c -3.172884,0 -5.746045,2.57282 -5.746045,5.74676 0,2.53894 1.646414,4.69265 3.929945,5.45253 0.287514,0.0529 0.392289,-0.12453 0.392289,-0.27693 0,-0.13653 -0.0049,-0.49777 -0.0078,-0.97719 -1.598437,0.34713 -1.935692,-0.77047 -1.935692,-0.77047 -0.261409,-0.66393 -0.638175,-0.84067 -0.638175,-0.84067 -0.521758,-0.35631 0.03951,-0.34925 0.03951,-0.34925 0.576792,0.0406 0.88018,0.59231 0.88018,0.59231 0.512587,0.87807 1.345142,0.62442 1.67252,0.47731 0.05221,-0.37112 0.200728,-0.62442 0.364768,-0.768 -1.275993,-0.14499 -2.617607,-0.63817 -2.617607,-2.84021 0,-0.62724 0.224014,-1.14053 0.591608,-1.54199 -0.05927,-0.14535 -0.256469,-0.7299 0.05644,-1.52083 0,0 0.482248,-0.15451 1.580092,0.58914 0.458257,-0.1277 0.950027,-0.1912 1.438627,-0.19367 0.48825,0.002 0.97967,0.066 1.43863,0.19367 1.09714,-0.74365 1.57868,-0.58914 1.57868,-0.58914 0.31362,0.79093 0.11642,1.37548 0.0575,1.52083 0.3683,0.40146 0.59055,0.91475 0.59055,1.54199 0,2.20768 -1.34373,2.69346 -2.62361,2.83563 0.20602,0.17745 0.38982,0.52811 0.38982,1.06398 0,0.76835 -0.007,1.38818 -0.007,1.57656 0,0.15381 0.10372,0.33267 0.39511,0.27658 2.28177,-0.76165 3.92677,-2.91395 3.92677,-5.45218 0,-3.17394 -2.57316,-5.74676 -5.7471,-5.74676" />
  </g>
</svg>
