<?xml version="1.0" encoding="UTF-8" standalone="no"?>
<svg
   xmlns:dc="http://purl.org/dc/elements/1.1/"
   xmlns:cc="http://creativecommons.org/ns#"
   xmlns:rdf="http://www.w3.org/1999/02/22-rdf-syntax-ns#"
   xmlns:svg="http://www.w3.org/2000/svg"
   xmlns="http://www.w3.org/2000/svg"
   xmlns:sodipodi="http://sodipodi.sourceforge.net/DTD/sodipodi-0.dtd"
   xmlns:inkscape="http://www.inkscape.org/namespaces/inkscape"
   sodipodi:docname="github logo.svg"
   inkscape:version="1.0rc1 (09960d6, 2020-04-09)"
   id="svg281"
   version="1.1"
   viewBox="0 0 11.49306 11.209469"
   height="11.209469mm"
   width="11.49306mm">
  <defs
     id="defs275" />
  <sodipodi:namedview
     inkscape:window-maximized="1"
     inkscape:window-y="1051"
     inkscape:window-x="0"
     inkscape:window-height="1016"
     inkscape:window-width="1920"
     fit-margin-bottom="0"
     fit-margin-right="0"
     fit-margin-left="0"
     fit-margin-top="0"
     showgrid="false"
     inkscape:document-rotation="0"
     inkscape:current-layer="layer1"
     inkscape:document-units="mm"
     inkscape:cy="33.584032"
     inkscape:cx="39.501136"
     inkscape:zoom="5.6"
     inkscape:pageshadow="2"
     inkscape:pageopacity="0.0"
     borderopacity="1.0"
     bordercolor="#666666"
     pagecolor="#ffffff"
     id="base" />
  <metadata
     id="metadata278">
    <rdf:RDF>
      <cc:Work
         rdf:about="">
        <dc:format>image/svg+xml</dc:format>
        <dc:type
           rdf:resource="http://purl.org/dc/dcmitype/StillImage" />
        <dc:title></dc:title>
      </cc:Work>
    </rdf:RDF>
  </metadata>
  <g
     transform="translate(-75.358711,-92.634287)"
     id="layer1"
     inkscape:groupmode="layer"
     inkscape:label="Layer 1">
    <path
       d="m 81.104755,92.634287 c -3.172883,0 -5.746044,2.572808 -5.746044,5.74675 0,2.538593 1.646413,4.692653 3.929944,5.452883 0.287514,0.0526 0.392289,-0.12488 0.392289,-0.27728 0,-0.13653 -0.0049,-0.49777 -0.0078,-0.9772 -1.598436,0.34714 -1.935692,-0.77046 -1.935692,-0.77046 -0.261408,-0.66393 -0.638175,-0.84067 -0.638175,-0.84067 -0.521758,-0.35631 0.03951,-0.34925 0.03951,-0.34925 0.576792,0.0406 0.880181,0.59231 0.880181,0.59231 0.512586,0.87807 1.345141,0.62442 1.672519,0.47731 0.05221,-0.37112 0.200731,-0.62442 0.364772,-0.768 -1.275997,-0.14534 -2.617611,-0.63817 -2.617611,-2.84021 0,-0.627591 0.224014,-1.140178 0.591609,-1.541991 -0.05927,-0.145345 -0.25647,-0.729545 0.05644,-1.520825 0,0 0.482247,-0.154517 1.580092,0.588786 0.458258,-0.127353 0.95003,-0.190853 1.438627,-0.193323 0.488245,0.0025 0.979664,0.06597 1.438628,0.193323 1.097139,-0.743303 1.578681,-0.588786 1.578681,-0.588786 0.313619,0.79128 0.116416,1.37548 0.0575,1.520825 0.3683,0.401813 0.59055,0.9144 0.59055,1.541991 0,2.20768 -1.34373,2.69346 -2.623608,2.83563 0.206022,0.17744 0.38982,0.52811 0.38982,1.06433 0,0.768 -0.0071,1.38783 -0.0071,1.57621 0,0.15381 0.103716,0.33267 0.395111,0.27658 2.28177,-0.76165 3.926773,-2.91395 3.926773,-5.452183 0,-3.173942 -2.573162,-5.74675 -5.747103,-5.74675"
       style="fill:#1b1817;fill-opacity:1;fill-rule:evenodd;stroke:none;stroke-width:0.0352777"
       id="path16"
       inkscape:connector-curvature="0" />
  </g>
</svg>
